<svg width="512" height="512" viewBox="0 0 512 512" fill="none" xmlns="http://www.w3.org/2000/svg">
<g filter="url(#filter0_d_1_2)">
<rect x="56" y="56" width="400" height="400" rx="80" fill="#D9D9D9"/>
</g>
<mask id="mask0_1_2" style="mask-type:alpha" maskUnits="userSpaceOnUse" x="56" y="56" width="400" height="400">
<rect x="56" y="56" width="400" height="400" rx="80" fill="#D9D9D9"/>
</mask>
<g mask="url(#mask0_1_2)">
<path d="M46 56H466V190H46V56Z" fill="#DE4244"/>
<path d="M46 190H466V322H46V190Z" fill="#EA5E60"/>
<path d="M46 322H466V456H46V322Z" fill="#FD8A8C"/>
<g filter="url(#filter1_d_1_2)">
<path d="M401.104 339.285H403.409H403.541C407.247 339.285 409.237 339.285 410.861 338.741C413.984 337.695 416.435 335.244 417.481 332.121C418.026 330.497 418.025 328.507 418.025 324.801V324.669V324.537C418.025 320.831 418.026 318.841 417.481 317.217C416.435 314.094 413.984 311.643 410.861 310.597C409.237 310.053 407.247 310.053 403.541 310.053L403.409 310.053H401.104L400.973 310.053C397.266 310.053 395.276 310.053 393.653 310.597C390.53 311.643 388.079 314.094 387.032 317.217C386.488 318.841 386.488 320.831 386.488 324.537L386.488 324.669L386.488 324.801C386.488 328.507 386.488 330.497 387.032 332.121C388.079 335.244 390.53 337.695 393.653 338.741C395.276 339.285 397.266 339.285 400.973 339.285H401.104Z" fill="#E9F3F3" stroke="#669999"/>
<path d="M311.01 222.789V333.785C311.01 336.823 313.472 339.285 316.51 339.285H337.047C340.084 339.285 342.547 336.823 342.547 333.785V258.621C342.547 257.464 342.987 256.353 343.799 255.553C351.021 248.451 358.973 244.365 367.66 243.258C370.609 242.882 373.084 240.501 373.084 237.449V222.789C373.084 219.771 370.615 217.217 367.535 217.602C357.626 218.841 348.186 223.748 339.214 232.27L336.555 221.474C335.95 219.016 333.746 217.289 331.215 217.289H316.51C313.472 217.289 311.01 219.751 311.01 222.789Z" fill="#E9F3F3" stroke="#669999"/>
<path d="M257.311 251.898C257.311 271.967 253.048 286.925 244.61 296.862C236.184 306.783 223.524 311.781 206.531 311.781H177.537C175.052 311.781 173.037 309.767 173.037 307.281V205.504C173.037 203.019 175.052 201.004 177.537 201.004H206.531C223.547 201.004 236.217 205.267 244.637 213.706C253.057 222.145 257.311 234.844 257.311 251.898ZM141.5 194V318.785C141.5 330.107 150.678 339.285 162 339.285H206.531C233.888 339.285 254.496 332.021 268.258 317.406C282.014 302.798 288.848 280.931 288.848 251.898C288.848 225.849 282.006 206.221 268.238 193.112C254.475 180.008 233.874 173.5 206.531 173.5H162C150.678 173.5 141.5 182.678 141.5 194Z" fill="#E9F3F3" stroke="#669999"/>
</g>
<rect x="56.5" y="56.5" width="399" height="399" rx="79.5" stroke="#8E0002" stroke-opacity="0.4"/>
<g filter="url(#filter2_d_1_2)">
<mask id="path-8-inside-1_1_2" fill="white">
<path fill-rule="evenodd" clip-rule="evenodd" d="M350.74 344.909C356.219 340.914 356.219 332.741 350.74 328.747L285.155 280.937C278.546 276.12 269.264 280.84 269.264 289.018V315.639C204.27 316.469 192.66 327.355 158.701 386.009C156.088 390.522 161.305 395.517 165.731 392.76C207.548 366.72 220.251 362.342 269.264 358.047V384.638C269.264 392.816 278.546 397.536 285.155 392.718L350.74 344.909Z"/>
</mask>
<path fill-rule="evenodd" clip-rule="evenodd" d="M350.74 344.909C356.219 340.914 356.219 332.741 350.74 328.747L285.155 280.937C278.546 276.12 269.264 280.84 269.264 289.018V315.639C204.27 316.469 192.66 327.355 158.701 386.009C156.088 390.522 161.305 395.517 165.731 392.76C207.548 366.72 220.251 362.342 269.264 358.047V384.638C269.264 392.816 278.546 397.536 285.155 392.718L350.74 344.909Z" fill="#FEE2E3"/>
<path d="M350.74 328.747L351.329 327.939L351.329 327.939L350.74 328.747ZM350.74 344.909L351.329 345.717L351.329 345.717L350.74 344.909ZM285.155 280.937L285.744 280.129L285.744 280.129L285.155 280.937ZM269.264 315.639L269.277 316.639L270.264 316.627V315.639H269.264ZM158.701 386.009L157.835 385.508L157.835 385.508L158.701 386.009ZM165.731 392.76L165.202 391.911L165.202 391.911L165.731 392.76ZM269.264 358.047H270.264V356.956L269.177 357.051L269.264 358.047ZM285.155 392.718L284.566 391.91L284.566 391.91L285.155 392.718ZM350.151 329.555C355.082 333.15 355.082 340.506 350.151 344.1L351.329 345.717C357.356 341.323 357.356 332.332 351.329 327.939L350.151 329.555ZM284.566 281.745L350.151 329.555L351.329 327.939L285.744 280.129L284.566 281.745ZM270.264 289.018C270.264 281.658 278.618 277.409 284.566 281.745L285.744 280.129C278.475 274.83 268.264 280.022 268.264 289.018H270.264ZM270.264 315.639V289.018H268.264V315.639H270.264ZM159.566 386.51C176.569 357.144 187.854 339.978 202.898 329.973C217.905 319.992 236.789 317.054 269.277 316.639L269.251 314.639C236.745 315.054 217.327 317.974 201.791 328.307C186.292 338.616 174.793 356.22 157.835 385.508L159.566 386.51ZM165.202 391.911C161.638 394.131 157.488 390.099 159.566 386.51L157.835 385.508C154.688 390.945 160.971 396.902 166.26 393.609L165.202 391.911ZM269.177 357.051C244.663 359.199 229.131 361.374 214.48 366.301C199.831 371.228 186.115 378.888 165.202 391.911L166.26 393.609C187.164 380.591 200.708 373.043 215.118 368.197C229.526 363.351 244.853 361.19 269.352 359.044L269.177 357.051ZM270.264 384.638V358.047H268.264V384.638H270.264ZM284.566 391.91C278.618 396.246 270.264 391.998 270.264 384.638H268.264C268.264 393.633 278.475 398.826 285.744 393.527L284.566 391.91ZM350.151 344.1L284.566 391.91L285.744 393.527L351.329 345.717L350.151 344.1Z" fill="#FFC2C4" mask="url(#path-8-inside-1_1_2)"/>
</g>
</g>
<defs>
<filter id="filter0_d_1_2" x="36" y="51" width="440" height="440" filterUnits="userSpaceOnUse" color-interpolation-filters="sRGB">
<feFlood flood-opacity="0" result="BackgroundImageFix"/>
<feColorMatrix in="SourceAlpha" type="matrix" values="0 0 0 0 0 0 0 0 0 0 0 0 0 0 0 0 0 0 127 0" result="hardAlpha"/>
<feOffset dy="15"/>
<feGaussianBlur stdDeviation="10"/>
<feComposite in2="hardAlpha" operator="out"/>
<feColorMatrix type="matrix" values="0 0 0 0 0 0 0 0 0 0 0 0 0 0 0 0 0 0 0.2 0"/>
<feBlend mode="normal" in2="BackgroundImageFix" result="effect1_dropShadow_1_2"/>
<feBlend mode="normal" in="SourceGraphic" in2="effect1_dropShadow_1_2" result="shape"/>
</filter>
<filter id="filter1_d_1_2" x="121" y="163" width="317.525" height="206.785" filterUnits="userSpaceOnUse" color-interpolation-filters="sRGB">
<feFlood flood-opacity="0" result="BackgroundImageFix"/>
<feColorMatrix in="SourceAlpha" type="matrix" values="0 0 0 0 0 0 0 0 0 0 0 0 0 0 0 0 0 0 127 0" result="hardAlpha"/>
<feOffset dy="10"/>
<feGaussianBlur stdDeviation="10"/>
<feComposite in2="hardAlpha" operator="out"/>
<feColorMatrix type="matrix" values="0 0 0 0 0.570833 0 0 0 0 0 0 0 0 0 0.00815479 0 0 0 0.4 0"/>
<feBlend mode="normal" in2="BackgroundImageFix" result="effect1_dropShadow_1_2"/>
<feBlend mode="normal" in="SourceGraphic" in2="effect1_dropShadow_1_2" result="shape"/>
</filter>
<filter id="filter2_d_1_2" x="108" y="259" width="296.849" height="215.656" filterUnits="userSpaceOnUse" color-interpolation-filters="sRGB">
<feFlood flood-opacity="0" result="BackgroundImageFix"/>
<feColorMatrix in="SourceAlpha" type="matrix" values="0 0 0 0 0 0 0 0 0 0 0 0 0 0 0 0 0 0 127 0" result="hardAlpha"/>
<feOffset dy="30"/>
<feGaussianBlur stdDeviation="25"/>
<feComposite in2="hardAlpha" operator="out"/>
<feColorMatrix type="matrix" values="0 0 0 0 0.570833 0 0 0 0 0 0 0 0 0 0.00815479 0 0 0 0.4 0"/>
<feBlend mode="normal" in2="BackgroundImageFix" result="effect1_dropShadow_1_2"/>
<feBlend mode="normal" in="SourceGraphic" in2="effect1_dropShadow_1_2" result="shape"/>
</filter>
</defs>
</svg>
